<svg xmlns="http://www.w3.org/2000/svg" width="64" height="64" viewBox="0 0 64 64"><defs><linearGradient id="g" x1="0" y1="0" x2="1" y2="1"><stop offset="0" stop-color="#0EA5E9"/><stop offset="1" stop-color="#6366F1"/></linearGradient></defs><rect width="64" height="64" rx="14" fill="url(#g)"/><g fill="#fff"><rect x="15" y="26" width="11" height="23" rx="1"/><rect x="27" y="18" width="11" height="31" rx="1"/><rect x="39" y="30" width="10" height="19" rx="1"/></g><g><rect x="18" y="29" width="2.4" height="2.6" fill="#1E3A8A"/><rect x="22" y="29" width="2.4" height="2.6" fill="#1E3A8A"/><rect x="18" y="34" width="2.4" height="2.6" fill="#1E3A8A"/><rect x="22" y="34" width="2.4" height="2.6" fill="#1E3A8A"/><rect x="18" y="39" width="2.4" height="2.6" fill="#1E3A8A"/><rect x="22" y="39" width="2.4" height="2.6" fill="#1E3A8A"/><rect x="30" y="22" width="2.4" height="2.6" fill="#1E3A8A"/><rect x="34" y="22" width="2.4" height="2.6" fill="#1E3A8A"/><rect x="30" y="27" width="2.4" height="2.6" fill="#1E3A8A"/><rect x="34" y="27" width="2.4" height="2.6" fill="#1E3A8A"/><rect x="30" y="32" width="2.4" height="2.6" fill="#1E3A8A"/><rect x="34" y="32" width="2.4" height="2.6" fill="#1E3A8A"/><rect x="30" y="37" width="2.4" height="2.6" fill="#1E3A8A"/><rect x="34" y="37" width="2.4" height="2.6" fill="#1E3A8A"/><rect x="42" y="34" width="2.4" height="2.6" fill="#1E3A8A"/><rect x="46" y="34" width="2.4" height="2.6" fill="#1E3A8A"/><rect x="42" y="39" width="2.4" height="2.6" fill="#1E3A8A"/><rect x="46" y="39" width="2.4" height="2.6" fill="#1E3A8A"/></g></svg>