<svg xmlns="http://www.w3.org/2000/svg" viewBox="0 0 800 450" role="img" aria-label="Mantenimiento y recargas anuales CDMX">
  <defs>
    <linearGradient id="bg" x1="0" y1="0" x2="1" y2="1">
      <stop offset="0%" stop-color="#1a1a2e"/>
      <stop offset="60%" stop-color="#2d0e0e"/>
      <stop offset="100%" stop-color="#3b0a0a"/>
    </linearGradient>
    <radialGradient id="glow" cx="0.5" cy="0.45" r="0.55">
      <stop offset="0%" stop-color="#ff3d00" stop-opacity="0.45"/>
      <stop offset="100%" stop-color="#ff3d00" stop-opacity="0"/>
    </radialGradient>
    <linearGradient id="accent" x1="0" y1="0" x2="0" y2="1">
      <stop offset="0%" stop-color="#ff6b35"/>
      <stop offset="100%" stop-color="#e63946"/>
    </linearGradient>
  </defs>
  <rect width="800" height="450" fill="url(#bg)"/>
  <circle cx="400" cy="200" r="240" fill="url(#glow)"/>
  <g transform="translate(360 130) scale(1.5)" fill="url(#accent)">
    <path d="M50 4l-8 8 4 4-12 12-16-16-4 4 16 16-12 12-8-8-4 4 24 24 4-4-8-8 12-12 16 16 4-4-16-16 12-12 4 4 8-8z"/>
  </g>
  <text x="400" y="370" text-anchor="middle" fill="#fff" font-family="Inter,system-ui,sans-serif" font-size="26" font-weight="700" letter-spacing="0.03em">MANTENIMIENTO Y RECARGAS</text>
  <text x="400" y="402" text-anchor="middle" fill="#a8acbf" font-family="Inter,system-ui,sans-serif" font-size="14" letter-spacing="0.18em">EXTINTORES · SISTEMAS · ANUAL</text>
</svg>