<svg xmlns="http://www.w3.org/2000/svg" viewBox="0 0 800 450" role="img" aria-label="Proteccion contra incendios CDMX">
  <defs>
    <linearGradient id="bg" x1="0" y1="0" x2="1" y2="1">
      <stop offset="0%" stop-color="#1a1a2e"/>
      <stop offset="60%" stop-color="#2d0e0e"/>
      <stop offset="100%" stop-color="#3b0a0a"/>
    </linearGradient>
    <radialGradient id="glow" cx="0.5" cy="0.45" r="0.55">
      <stop offset="0%" stop-color="#ff3d00" stop-opacity="0.45"/>
      <stop offset="100%" stop-color="#ff3d00" stop-opacity="0"/>
    </radialGradient>
    <linearGradient id="accent" x1="0" y1="0" x2="0" y2="1">
      <stop offset="0%" stop-color="#ff6b35"/>
      <stop offset="100%" stop-color="#e63946"/>
    </linearGradient>
  </defs>
  <rect width="800" height="450" fill="url(#bg)"/>
  <circle cx="400" cy="200" r="240" fill="url(#glow)"/>
  <g transform="translate(360 130) scale(1.5)" fill="url(#accent)">
    <path d="M32 0c-9 0-16 7-16 16v8h-4c-5 0-8 3-8 8v6c0 3 2 5 5 5h46c3 0 5-2 5-5v-6c0-5-3-8-8-8h-4v-8c0-9-7-16-16-16zm-8 16c0-5 3-8 8-8s8 3 8 8v8H24v-8z"/><path d="M12 48v82c0 8 6 14 14 14h12c8 0 14-6 14-14V48H12zm8 16h28v6H20v-6zm0 18h28v6H20v-6zm0 18h28v6H20v-6z"/>
  </g>
  <text x="400" y="370" text-anchor="middle" fill="#fff" font-family="Inter,system-ui,sans-serif" font-size="26" font-weight="700" letter-spacing="0.03em">PROTECCION CONTRA INCENDIOS</text>
  <text x="400" y="402" text-anchor="middle" fill="#a8acbf" font-family="Inter,system-ui,sans-serif" font-size="14" letter-spacing="0.18em">CDMX · EQUIPO · SISTEMAS · DICTAMEN</text>
</svg>