<svg xmlns="http://www.w3.org/2000/svg" viewBox="0 0 800 450" role="img" aria-label="Proteccion contra incendios CDMX">
  <defs>
    <linearGradient id="bg" x1="0" y1="0" x2="1" y2="1">
      <stop offset="0%" stop-color="#1a1a2e"/>
      <stop offset="100%" stop-color="#3b0a0a"/>
    </linearGradient>
    <radialGradient id="glow" cx="0.5" cy="0.5" r="0.5">
      <stop offset="0%" stop-color="#ff3d00" stop-opacity="0.5"/>
      <stop offset="100%" stop-color="#ff3d00" stop-opacity="0"/>
    </radialGradient>
  </defs>
  <rect width="800" height="450" fill="url(#bg)"/>
  <circle cx="400" cy="225" r="220" fill="url(#glow)"/>
  <g transform="translate(340 130)" fill="#ff3d00">
    <path d="M48 0c-13 0-24 11-24 24v8h-4c-7 0-12 5-12 12v8c0 4 3 8 8 8h64c5 0 8-4 8-8v-8c0-7-5-12-12-12h-4v-8c0-13-11-24-24-24zm-12 24c0-7 5-12 12-12s12 5 12 12v8H36v-8z"/>
    <path d="M16 70v110c0 11 9 20 20 20h24c11 0 20-9 20-20V70H16zm12 20h40v10H28V90zm0 30h40v10H28v-10zm0 30h40v10H28v-10z"/>
  </g>
  <text x="400" y="370" text-anchor="middle" fill="#fff" font-family="Inter,system-ui,sans-serif" font-size="28" font-weight="700" letter-spacing="0.05em">PROTECCION CONTRA INCENDIOS</text>
  <text x="400" y="402" text-anchor="middle" fill="#a8acbf" font-family="Inter,system-ui,sans-serif" font-size="16" letter-spacing="0.15em">CDMX · EXTINTORES · HIDRANTES · DETECCION</text>
</svg>
