<svg xmlns="http://www.w3.org/2000/svg" viewBox="0 0 800 450" width="800" height="450">
<defs>
<linearGradient id="bg" x1="0%" y1="0%" x2="100%" y2="100%">
<stop offset="0%" style="stop-color:#0a0203"/>
<stop offset="60%" style="stop-color:#1a0608"/>
<stop offset="100%" style="stop-color:#2d0a10"/>
</linearGradient>
<linearGradient id="red" x1="0%" y1="0%" x2="100%" y2="100%">
<stop offset="0%" style="stop-color:#dc2626"/>
<stop offset="100%" style="stop-color:#991b1b"/>
</linearGradient>
<linearGradient id="steel" x1="0%" y1="0%" x2="100%" y2="100%">
<stop offset="0%" style="stop-color:#94a3b8"/>
<stop offset="100%" style="stop-color:#475569"/>
</linearGradient>
</defs>
<rect width="800" height="450" fill="url(#bg)"/>
<g opacity="0.04" stroke="#dc2626" stroke-width="1">
<line x1="0" y1="100" x2="800" y2="100"/>
<line x1="0" y1="200" x2="800" y2="200"/>
<line x1="0" y1="300" x2="800" y2="300"/>
<line x1="0" y1="400" x2="800" y2="400"/>
<line x1="100" y1="0" x2="100" y2="450"/>
<line x1="300" y1="0" x2="300" y2="450"/>
<line x1="500" y1="0" x2="500" y2="450"/>
<line x1="700" y1="0" x2="700" y2="450"/>
</g>
<g opacity="0.05" font-family="Georgia, serif" font-size="100" font-weight="bold" fill="#dc2626">
<text x="400" y="265" text-anchor="middle">+50 ANOS</text>
</g>

<g transform="translate(400,225)">
<circle cx="0" cy="0" r="120" fill="none" stroke="#dc2626" stroke-width="3" opacity="0.6"/>
<circle cx="0" cy="0" r="90" fill="#1a0608"/>
<circle cx="0" cy="0" r="90" fill="none" stroke="#94a3b8" stroke-width="2"/>
<text x="0" y="-20" text-anchor="middle" font-family="system-ui" font-size="20" font-weight="bold" fill="#dc2626">NFPA 1971</text>
<text x="0" y="0" text-anchor="middle" font-family="system-ui" font-size="14" fill="#fff" opacity="0.85">20+ marcas</text>
<text x="0" y="22" text-anchor="middle" font-family="system-ui" font-size="14" fill="#fff" opacity="0.85">32 estados</text>
<text x="0" y="44" text-anchor="middle" font-family="system-ui" font-size="14" fill="#fff" opacity="0.85">+50 anos</text>
</g>

<g fill="#dc2626" font-family="system-ui, sans-serif">
<text x="40" y="380" font-size="34" font-weight="bold" letter-spacing="2">FIREFIGHTER.MX</text>
<text x="40" y="412" font-size="16" fill="#94a3b8" letter-spacing="1">Equipo certificado · Linea nacional + premium import · +50 anos</text>
</g>
<rect x="30" y="30" width="135" height="36" fill="#dc2626" rx="4"/>
<text x="97" y="55" text-anchor="middle" font-family="system-ui" font-size="14" font-weight="bold" fill="#fff">FIREFIGHTER.MX</text>
<rect x="650" y="30" width="120" height="36" fill="none" stroke="#94a3b8" stroke-width="2" rx="4"/>
<text x="710" y="55" text-anchor="middle" font-family="system-ui" font-size="12" font-weight="bold" fill="#94a3b8">+50 AÑOS · 20+ MARCAS</text>
</svg>