<svg xmlns="http://www.w3.org/2000/svg" viewBox="0 0 800 450" role="img" aria-label="Sucursal Queretaro Constituyentes 120">
  <defs>
    <linearGradient id="bg" x1="0" y1="0" x2="1" y2="1">
      <stop offset="0%" stop-color="#0f0f1e"/>
      <stop offset="60%" stop-color="#2a0808"/>
      <stop offset="100%" stop-color="#3b0a0a"/>
    </linearGradient>
    <radialGradient id="glow" cx="0.5" cy="0.45" r="0.55">
      <stop offset="0%" stop-color="#c8102e" stop-opacity="0.55"/>
      <stop offset="100%" stop-color="#c8102e" stop-opacity="0"/>
    </radialGradient>
    <linearGradient id="accent" x1="0" y1="0" x2="0" y2="1">
      <stop offset="0%" stop-color="#dc1c3a"/>
      <stop offset="100%" stop-color="#8b0a1e"/>
    </linearGradient>
  </defs>
  <rect width="800" height="450" fill="url(#bg)"/>
  <circle cx="400" cy="200" r="240" fill="url(#glow)"/>
  <g transform="translate(360 130) scale(1.5)" fill="url(#accent)">
    <rect x="6" y="20" width="52" height="80" rx="2"/><rect x="14" y="28" width="8" height="8" fill="#0f0f1e"/><rect x="28" y="28" width="8" height="8" fill="#0f0f1e"/><rect x="42" y="28" width="8" height="8" fill="#0f0f1e"/><rect x="14" y="44" width="8" height="8" fill="#0f0f1e"/><rect x="28" y="44" width="8" height="8" fill="#0f0f1e"/><rect x="42" y="44" width="8" height="8" fill="#0f0f1e"/><rect x="14" y="60" width="8" height="8" fill="#0f0f1e"/><rect x="42" y="60" width="8" height="8" fill="#0f0f1e"/><rect x="22" y="76" width="20" height="24" fill="#0f0f1e"/>
  </g>
  <text x="400" y="370" text-anchor="middle" fill="#fff" font-family="Inter,system-ui,sans-serif" font-size="26" font-weight="700" letter-spacing="0.03em">SUCURSAL QUERETARO</text>
  <text x="400" y="402" text-anchor="middle" fill="#a8acbf" font-family="Inter,system-ui,sans-serif" font-size="14" letter-spacing="0.18em">AV. CONSTITUYENTES 120</text>
</svg>