<svg xmlns="http://www.w3.org/2000/svg" viewBox="0 0 800 450" role="img" aria-label="Extintores certificados clases A B C K NFPA 10">
  <defs>
    <linearGradient id="bg" x1="0" y1="0" x2="1" y2="1">
      <stop offset="0%" stop-color="#0a0e1a"/>
      <stop offset="50%" stop-color="#101830"/>
      <stop offset="100%" stop-color="#1a1f3a"/>
    </linearGradient>
    <radialGradient id="glow" cx="0.5" cy="0.45" r="0.6">
      <stop offset="0%" stop-color="#e53935" stop-opacity="0.55"/>
      <stop offset="60%" stop-color="#e53935" stop-opacity="0.12"/>
      <stop offset="100%" stop-color="#e53935" stop-opacity="0"/>
    </radialGradient>
    <linearGradient id="accent" x1="0" y1="0" x2="0" y2="1">
      <stop offset="0%" stop-color="#ff4757"/>
      <stop offset="100%" stop-color="#c0392b"/>
    </linearGradient>
    <linearGradient id="ribbon" x1="0" y1="0" x2="1" y2="0">
      <stop offset="0%" stop-color="#ff4757" stop-opacity="0.85"/>
      <stop offset="100%" stop-color="#c0392b" stop-opacity="0.6"/>
    </linearGradient>
  </defs>
  <rect width="800" height="450" fill="url(#bg)"/>
  <circle cx="400" cy="200" r="260" fill="url(#glow)"/>
  <g opacity="0.06" fill="none" stroke="#e53935" stroke-width="1">
    <path d="M 0 200 L 800 200" stroke-dasharray="4 8"/>
    <path d="M 400 0 L 400 400" stroke-dasharray="4 8"/>
  </g>
  <rect x="0" y="338" width="800" height="2" fill="url(#ribbon)"/>
  <g transform="translate(360 130) scale(1.5)" fill="url(#accent)">
    <path d="M32 0c-9 0-16 7-16 16v8h-4c-5 0-8 3-8 8v6c0 3 2 5 5 5h46c3 0 5-2 5-5v-6c0-5-3-8-8-8h-4v-8c0-9-7-16-16-16zm-8 16c0-5 3-8 8-8s8 3 8 8v8H24v-8z"/><path d="M12 48v82c0 8 6 14 14 14h12c8 0 14-6 14-14V48H12zm8 16h28v6H20v-6zm0 18h28v6H20v-6zm0 18h28v6H20v-6z"/>
  </g>
  <text x="400" y="370" text-anchor="middle" fill="#fff" font-family="Inter,system-ui,sans-serif" font-size="28" font-weight="800" letter-spacing="0.04em">EXTINTORES CERTIFICADOS</text>
  <text x="400" y="402" text-anchor="middle" fill="#94a0bf" font-family="Inter,system-ui,sans-serif" font-size="13" letter-spacing="0.22em">16 MODELOS · CLASES A B C K · NFPA 10</text>
</svg>