<svg xmlns="http://www.w3.org/2000/svg" viewBox="0 0 800 450" role="img" aria-label="Documentacion Proteccion Civil NOM NFPA dictamen">
  <defs>
    <linearGradient id="bg" x1="0" y1="0" x2="1" y2="1">
      <stop offset="0%" stop-color="#0a0a14"/>
      <stop offset="50%" stop-color="#1a0508"/>
      <stop offset="100%" stop-color="#2d0a0e"/>
    </linearGradient>
    <radialGradient id="glow" cx="0.5" cy="0.45" r="0.65">
      <stop offset="0%" stop-color="#dc1c3a" stop-opacity="0.6"/>
      <stop offset="60%" stop-color="#dc1c3a" stop-opacity="0.15"/>
      <stop offset="100%" stop-color="#dc1c3a" stop-opacity="0"/>
    </radialGradient>
    <linearGradient id="accent" x1="0" y1="0" x2="0" y2="1">
      <stop offset="0%" stop-color="#ef4053"/>
      <stop offset="100%" stop-color="#a8112a"/>
    </linearGradient>
    <linearGradient id="silver" x1="0" y1="0" x2="0" y2="1">
      <stop offset="0%" stop-color="#e8e8ee"/>
      <stop offset="100%" stop-color="#9aa0ac"/>
    </linearGradient>
  </defs>
  <rect width="800" height="450" fill="url(#bg)"/>
  <circle cx="400" cy="200" r="260" fill="url(#glow)"/>
  <g opacity="0.08" fill="none" stroke="#dc1c3a" stroke-width="1">
    <circle cx="400" cy="200" r="180"/>
    <circle cx="400" cy="200" r="140"/>
    <circle cx="400" cy="200" r="100"/>
  </g>
  <g transform="translate(360 130) scale(1.5)" fill="url(#accent)">
    <rect x="8" y="0" width="48" height="64" rx="2"/><path d="M16 12h32v3H16zm0 10h32v3H16zm0 10h24v3H16z" fill="#0a0a14"/><circle cx="44" cy="48" r="10" fill="#0a0a14"/><path d="M40 48l3 3 6-6" fill="none" stroke="url(#accent)" stroke-width="2.5"/>
  </g>
  <text x="400" y="370" text-anchor="middle" fill="#fff" font-family="Inter,system-ui,sans-serif" font-size="28" font-weight="800" letter-spacing="0.04em">DOCUMENTACION PROTECCION CIVIL</text>
  <text x="400" y="402" text-anchor="middle" fill="#b8bcc8" font-family="Inter,system-ui,sans-serif" font-size="13" letter-spacing="0.22em">NOM/NFPA · DICTAMEN · AUDITORIA</text>
</svg>