<svg xmlns="http://www.w3.org/2000/svg" viewBox="0 0 800 450" role="img" aria-label="MESECI equipo contra incendios certificado NOM NFPA">
  <defs>
    <linearGradient id="bg" x1="0" y1="0" x2="1" y2="1">
      <stop offset="0%" stop-color="#0a0a14"/>
      <stop offset="50%" stop-color="#1a0508"/>
      <stop offset="100%" stop-color="#2d0a0e"/>
    </linearGradient>
    <radialGradient id="glow" cx="0.5" cy="0.45" r="0.65">
      <stop offset="0%" stop-color="#dc1c3a" stop-opacity="0.6"/>
      <stop offset="60%" stop-color="#dc1c3a" stop-opacity="0.15"/>
      <stop offset="100%" stop-color="#dc1c3a" stop-opacity="0"/>
    </radialGradient>
    <linearGradient id="accent" x1="0" y1="0" x2="0" y2="1">
      <stop offset="0%" stop-color="#ef4053"/>
      <stop offset="100%" stop-color="#a8112a"/>
    </linearGradient>
    <linearGradient id="silver" x1="0" y1="0" x2="0" y2="1">
      <stop offset="0%" stop-color="#e8e8ee"/>
      <stop offset="100%" stop-color="#9aa0ac"/>
    </linearGradient>
  </defs>
  <rect width="800" height="450" fill="url(#bg)"/>
  <circle cx="400" cy="200" r="260" fill="url(#glow)"/>
  <g opacity="0.08" fill="none" stroke="#dc1c3a" stroke-width="1">
    <circle cx="400" cy="200" r="180"/>
    <circle cx="400" cy="200" r="140"/>
    <circle cx="400" cy="200" r="100"/>
  </g>
  <g transform="translate(360 130) scale(1.5)" fill="url(#accent)">
    <path d="M32 0c-9 0-16 7-16 16v8h-4c-5 0-8 3-8 8v6c0 3 2 5 5 5h46c3 0 5-2 5-5v-6c0-5-3-8-8-8h-4v-8c0-9-7-16-16-16zm-8 16c0-5 3-8 8-8s8 3 8 8v8H24v-8z"/><path d="M12 48v82c0 8 6 14 14 14h12c8 0 14-6 14-14V48H12zm8 16h28v6H20v-6zm0 18h28v6H20v-6zm0 18h28v6H20v-6z"/>
  </g>
  <text x="400" y="370" text-anchor="middle" fill="#fff" font-family="Inter,system-ui,sans-serif" font-size="28" font-weight="800" letter-spacing="0.04em">MESECI</text>
  <text x="400" y="402" text-anchor="middle" fill="#b8bcc8" font-family="Inter,system-ui,sans-serif" font-size="13" letter-spacing="0.22em">EQUIPO CONTRA INCENDIOS · CERTIFICADO NOM Y NFPA</text>
</svg>