<svg xmlns="http://www.w3.org/2000/svg" viewBox="0 0 800 450" role="img" aria-label="Equipo tecnico ingenieros 25 anos Bajio">
  <defs>
    <linearGradient id="bg" x1="0" y1="0" x2="1" y2="1">
      <stop offset="0%" stop-color="#0a0e1a"/>
      <stop offset="50%" stop-color="#101830"/>
      <stop offset="100%" stop-color="#1a1f3a"/>
    </linearGradient>
    <radialGradient id="glow" cx="0.5" cy="0.45" r="0.6">
      <stop offset="0%" stop-color="#e53935" stop-opacity="0.55"/>
      <stop offset="60%" stop-color="#e53935" stop-opacity="0.12"/>
      <stop offset="100%" stop-color="#e53935" stop-opacity="0"/>
    </radialGradient>
    <linearGradient id="accent" x1="0" y1="0" x2="0" y2="1">
      <stop offset="0%" stop-color="#ff4757"/>
      <stop offset="100%" stop-color="#c0392b"/>
    </linearGradient>
    <linearGradient id="ribbon" x1="0" y1="0" x2="1" y2="0">
      <stop offset="0%" stop-color="#ff4757" stop-opacity="0.85"/>
      <stop offset="100%" stop-color="#c0392b" stop-opacity="0.6"/>
    </linearGradient>
  </defs>
  <rect width="800" height="450" fill="url(#bg)"/>
  <circle cx="400" cy="200" r="260" fill="url(#glow)"/>
  <g opacity="0.06" fill="none" stroke="#e53935" stroke-width="1">
    <path d="M 0 200 L 800 200" stroke-dasharray="4 8"/>
    <path d="M 400 0 L 400 400" stroke-dasharray="4 8"/>
  </g>
  <rect x="0" y="338" width="800" height="2" fill="url(#ribbon)"/>
  <g transform="translate(360 130) scale(1.5)" fill="url(#accent)">
    <circle cx="20" cy="22" r="12"/><circle cx="44" cy="22" r="12"/><path d="M0 60c0-11 9-20 20-20s20 9 20 20v20H0V60z"/><path d="M24 60c0-11 9-20 20-20s20 9 20 20v20H24V60z"/>
  </g>
  <text x="400" y="370" text-anchor="middle" fill="#fff" font-family="Inter,system-ui,sans-serif" font-size="28" font-weight="800" letter-spacing="0.04em">EQUIPO TECNICO</text>
  <text x="400" y="402" text-anchor="middle" fill="#94a0bf" font-family="Inter,system-ui,sans-serif" font-size="13" letter-spacing="0.22em">INGENIEROS · 25 ANOS · BAJIO</text>
</svg>